<svg width="500" height="500" viewBox="0 0 500 500" fill="none" xmlns="http://www.w3.org/2000/svg">
<circle cx="250" cy="250" r="246.5" fill="black" stroke="white" stroke-width="7"/>
<path d="M279.133 410.053C268.525 428.462 258.097 446.551 247.602 464.758C244.486 462.88 243.662 460.401 242.456 458.325C228.414 434.137 214.873 409.656 200.118 385.884C199.856 385.462 199.751 384.917 199.428 384.559C191.414 375.683 194.003 367.646 199.761 358.329C214.342 334.732 227.959 310.539 241.877 286.536C252.71 267.853 263.369 249.07 274.188 230.38C289.085 204.643 303.92 178.868 319.146 153.327C321.577 149.249 323.314 144.684 326.738 141.12C329.187 138.571 331.348 138.013 333.985 140.446C336.391 142.666 338.339 144.671 336.057 148.524C327.68 162.668 319.629 177.004 311.467 191.275C311.055 191.995 310.775 192.79 310.402 193.534C309.279 195.772 309.421 197.908 311.678 199.167C314.193 200.57 316.227 199.448 317.427 197.013C320.741 190.286 325.118 184.205 328.946 177.793C334.319 168.792 339.568 159.711 344.643 150.539C348.854 142.929 351.066 142.21 358.313 147.082C359.81 144.722 361.299 142.363 362.8 140.011C364.753 136.951 367.684 136.249 370.565 137.926C373.674 139.735 374.492 142.582 372.372 146.018C370.285 149.4 368.529 152.985 366.718 156.315C367.085 157.939 368.324 158.208 369.324 158.728C372.965 160.621 373.918 163.395 371.93 166.999C369.522 171.368 367.001 175.675 364.537 180.013C363.124 182.503 362.182 185.266 365.164 187.02C368.028 188.705 370.733 187.533 372.379 184.7C375.304 179.663 378.083 174.541 380.898 169.441C384.752 162.456 387.7 161.77 393.726 166.556C395.78 165.231 396.533 162.909 397.773 160.994C401.614 155.062 404.242 153.596 407.836 155.67C411.727 157.916 411.624 160.312 407.798 166.785C402.293 176.096 396.926 185.489 391.522 194.86C390.861 196.007 390.339 197.235 389.757 198.418C397.21 202.725 397.646 204.392 393.307 211.922C362.295 265.741 331.279 319.558 300.265 373.376C293.281 385.496 286.297 397.616 279.133 410.053ZM287.037 233.393C286.581 234.283 286.135 235.177 285.669 236.06C284.634 238.02 284.245 240.001 286.583 241.2C289.356 242.621 291.465 241.219 292.858 238.882C296.089 233.456 299.133 227.92 302.312 222.463C303.763 219.972 304.871 217.255 301.783 215.552C298.994 214.013 296.701 215.612 295.238 218.3C292.618 223.116 289.977 227.921 287.037 233.393ZM324.583 208.11C323.897 211.742 319.857 213.764 319.968 217.803C320.025 219.871 320.087 221.896 322.538 222.591C324.632 223.185 326.6 222.86 327.758 220.846C330.314 216.399 332.792 211.905 335.191 207.372C336.272 205.328 335.737 203.478 333.789 202.183C331.895 200.924 329.906 200.978 328.369 202.638C327.041 204.072 326.075 205.842 324.583 208.11ZM329.004 238.272C329.036 235.366 327.174 234.214 324.695 233.75C322.148 233.273 320.644 234.867 319.538 236.786C318.303 238.926 317.22 241.163 316.209 243.421C315.169 245.743 315.139 248.095 317.581 249.529C320.265 251.105 322.469 249.671 323.932 247.5C325.768 244.775 327.216 241.788 329.004 238.272ZM359.114 209.861C357.845 212.553 356.778 215.672 360.071 217.253C364.091 219.182 365.956 215.847 367.7 212.884C369.355 210.073 368.951 207.692 366.152 206.087C362.63 204.068 361.065 206.732 359.114 209.861ZM342.324 187.296C345.577 188.044 347.949 186.778 349.06 183.77C349.852 181.629 348.488 179.816 346.745 178.771C344.818 177.615 342.883 178.132 341.486 179.993C339.708 182.362 338.999 184.725 342.324 187.296Z" fill="white"/>
<path d="M194.461 212.592C202.216 225.797 210.062 238.515 218.194 251.063C220.111 254.02 220.682 257.403 218.503 260.933C203.29 285.573 188.194 310.285 173.042 334.963C172.628 335.637 172.006 336.183 171.299 336.998C168.342 334.613 166.851 331.46 165.168 328.479C153.967 308.64 142.803 288.781 131.617 268.934C123.053 253.739 114.581 238.491 105.871 223.379C97.3488 208.593 88.4431 194.026 80.022 179.183C78.2296 176.024 75.9066 173.183 74.461 169.849C72.4302 165.165 73.5918 163.135 78.5674 163.12C105.549 163.04 132.532 163.158 159.513 162.983C165.286 162.945 167.289 167.027 169.285 170.896C176.693 185.258 186.308 198.268 194.461 212.592Z" fill="white"/>
<path d="M358.413 129.367C356.766 132.297 355.155 134.834 353.848 137.52C352.175 140.959 349.36 140.892 346.714 139.593C344.106 138.313 341.961 136.003 343.508 132.705C346.404 126.532 349.931 120.685 353.907 115.151C355.311 113.197 357.472 111.983 360.011 113.511C362.739 115.152 364.137 117.69 363.008 120.699C361.912 123.621 360.087 126.271 358.413 129.367Z" fill="white"/>
<path d="M396.485 145.388C394.523 148.689 392.833 151.727 390.924 154.621C389.149 157.311 386.432 158.21 383.554 156.886C380.44 155.453 379.897 152.216 381.163 149.634C383.842 144.171 386.924 138.852 390.391 133.856C391.894 131.69 394.847 130.855 397.449 132.989C399.83 134.94 401.092 137.325 399.466 140.381C398.612 141.985 397.601 143.504 396.485 145.388Z" fill="white"/>
<path d="M422.823 140.773C421.882 142.381 421.116 143.666 420.387 144.972C418.519 148.318 415.609 149.201 412.359 147.634C408.983 146.007 408.897 142.606 410.275 139.851C412.718 134.966 415.66 130.306 418.68 125.742C420.552 122.912 423.665 123.066 426.317 124.295C429.061 125.567 429.206 128.358 428.138 130.788C426.674 134.119 424.746 137.246 422.823 140.773Z" fill="white"/>
<path d="M407.096 105.676C410.118 104.189 412.533 104.322 414.539 106.797C416.629 109.376 416.363 111.91 414.607 114.543C412.953 117.025 411.532 119.668 409.795 122.086C407.972 124.625 405.638 125.885 402.538 123.973C399.522 122.112 398.464 119.568 400.212 116.395C402.201 112.785 403.846 108.935 407.096 105.676Z" fill="white"/>
<path d="M380.98 129.356C378.147 131.031 376.236 130.043 374.517 128.114C372.794 126.179 372.275 124.093 373.529 121.705C374.148 120.527 374.747 119.338 375.309 118.133C377.053 114.399 379.895 112.587 383.745 114.524C387.483 116.406 387.213 119.801 385.702 123.167C384.669 125.468 383.281 127.526 380.98 129.356Z" fill="white"/>
</svg>
