<svg width="1024" height="768" viewBox="0 0 1024 768" fill="none" xmlns="http://www.w3.org/2000/svg">
<path d="M335.133 515.054C324.525 533.462 314.097 551.551 303.602 569.758C300.486 567.88 299.662 565.401 298.456 563.325C284.414 539.137 270.873 514.656 256.118 490.884C255.856 490.462 255.751 489.917 255.428 489.559C247.414 480.683 250.003 472.646 255.761 463.329C270.342 439.732 283.959 415.539 297.877 391.536C308.71 372.853 319.369 354.07 330.188 335.38C345.085 309.643 359.92 283.868 375.146 258.327C377.577 254.249 379.314 249.684 382.738 246.12C385.187 243.571 387.348 243.013 389.985 245.446C392.391 247.666 394.339 249.671 392.057 253.524C383.68 267.668 375.629 282.004 367.467 296.275C367.055 296.995 366.775 297.79 366.402 298.534C365.279 300.772 365.421 302.908 367.678 304.167C370.193 305.57 372.227 304.448 373.427 302.013C376.741 295.286 381.118 289.205 384.946 282.793C390.319 273.792 395.568 264.711 400.643 255.539C404.854 247.929 407.066 247.21 414.313 252.082C415.81 249.722 417.299 247.363 418.8 245.011C420.753 241.951 423.684 241.249 426.565 242.926C429.674 244.735 430.492 247.582 428.372 251.018C426.285 254.4 424.529 257.985 422.718 261.315C423.085 262.939 424.324 263.208 425.324 263.728C428.965 265.621 429.918 268.395 427.93 271.999C425.522 276.368 423.001 280.675 420.537 285.013C419.124 287.503 418.182 290.266 421.164 292.02C424.028 293.705 426.733 292.533 428.379 289.7C431.304 284.663 434.083 279.541 436.898 274.441C440.752 267.456 443.7 266.77 449.726 271.556C451.78 270.231 452.533 267.909 453.773 265.994C457.614 260.062 460.242 258.596 463.836 260.67C467.727 262.916 467.624 265.312 463.798 271.785C458.293 281.096 452.926 290.489 447.522 299.86C446.861 301.007 446.339 302.235 445.757 303.418C453.21 307.725 453.646 309.392 449.307 316.922C418.295 370.741 387.279 424.558 356.265 478.376C349.281 490.496 342.297 502.616 335.133 515.054ZM343.037 338.393C342.581 339.283 342.135 340.177 341.669 341.06C340.634 343.02 340.245 345.001 342.583 346.2C345.356 347.621 347.465 346.219 348.858 343.882C352.089 338.456 355.133 332.92 358.312 327.463C359.763 324.972 360.871 322.255 357.783 320.552C354.994 319.013 352.701 320.612 351.238 323.3C348.618 328.116 345.977 332.921 343.037 338.393ZM380.583 313.11C379.897 316.742 375.857 318.764 375.968 322.803C376.025 324.871 376.087 326.896 378.538 327.591C380.632 328.185 382.6 327.86 383.758 325.846C386.314 321.399 388.792 316.905 391.191 312.372C392.272 310.328 391.737 308.478 389.789 307.183C387.895 305.924 385.906 305.978 384.369 307.638C383.041 309.072 382.075 310.842 380.583 313.11ZM385.004 343.272C385.036 340.366 383.174 339.214 380.695 338.75C378.148 338.273 376.644 339.867 375.538 341.786C374.303 343.926 373.22 346.163 372.209 348.421C371.169 350.743 371.139 353.095 373.581 354.529C376.265 356.105 378.469 354.671 379.932 352.5C381.768 349.775 383.216 346.788 385.004 343.272ZM415.114 314.861C413.845 317.553 412.778 320.672 416.071 322.253C420.091 324.182 421.956 320.847 423.7 317.884C425.355 315.073 424.951 312.692 422.152 311.087C418.63 309.068 417.065 311.732 415.114 314.861ZM398.324 292.296C401.577 293.044 403.949 291.778 405.06 288.77C405.852 286.629 404.488 284.816 402.745 283.771C400.818 282.615 398.883 283.132 397.486 284.993C395.708 287.362 394.999 289.725 398.324 292.296Z" fill="white"/>
<path d="M250.461 317.592C258.216 330.797 266.062 343.515 274.194 356.063C276.111 359.02 276.682 362.403 274.503 365.933C259.29 390.573 244.194 415.285 229.042 439.963C228.628 440.637 228.006 441.183 227.299 441.998C224.342 439.613 222.851 436.46 221.168 433.479C209.967 413.64 198.803 393.781 187.617 373.934C179.053 358.739 170.581 343.491 161.871 328.379C153.349 313.593 144.443 299.026 136.022 284.183C134.23 281.024 131.907 278.183 130.461 274.849C128.43 270.165 129.592 268.135 134.567 268.12C161.549 268.04 188.532 268.158 215.513 267.983C221.286 267.945 223.289 272.027 225.285 275.896C232.693 290.258 242.308 303.268 250.461 317.592Z" fill="white"/>
<path d="M414.412 234.367C412.766 237.297 411.154 239.835 409.848 242.521C408.175 245.959 405.36 245.892 402.713 244.593C400.105 243.313 397.961 241.003 399.508 237.705C402.404 231.532 405.93 225.685 409.907 220.151C411.311 218.197 413.472 216.983 416.011 218.511C418.739 220.152 420.137 222.69 419.008 225.699C417.912 228.621 416.087 231.271 414.412 234.367Z" fill="white"/>
<path d="M452.485 250.388C450.523 253.689 448.833 256.727 446.924 259.621C445.149 262.311 442.432 263.21 439.554 261.886C436.44 260.453 435.897 257.216 437.163 254.634C439.842 249.171 442.924 243.852 446.391 238.856C447.894 236.69 450.847 235.855 453.449 237.989C455.83 239.94 457.092 242.325 455.466 245.381C454.612 246.985 453.601 248.504 452.485 250.388Z" fill="white"/>
<path d="M478.823 245.773C477.882 247.381 477.116 248.666 476.387 249.972C474.519 253.319 471.609 254.201 468.359 252.634C464.983 251.007 464.897 247.606 466.275 244.851C468.718 239.966 471.66 235.306 474.68 230.742C476.552 227.912 479.665 228.066 482.317 229.295C485.061 230.567 485.206 233.358 484.138 235.788C482.674 239.119 480.746 242.246 478.823 245.773Z" fill="white"/>
<path d="M463.096 210.676C466.118 209.189 468.533 209.322 470.538 211.797C472.629 214.376 472.363 216.91 470.607 219.543C468.953 222.025 467.531 224.668 465.795 227.086C463.972 229.625 461.638 230.886 458.538 228.973C455.522 227.112 454.463 224.568 456.212 221.395C458.201 217.785 459.846 213.935 463.096 210.676Z" fill="white"/>
<path d="M436.98 234.356C434.147 236.031 432.236 235.043 430.517 233.114C428.794 231.179 428.275 229.093 429.529 226.705C430.148 225.527 430.747 224.338 431.309 223.133C433.053 219.399 435.895 217.587 439.745 219.524C443.483 221.406 443.213 224.801 441.702 228.167C440.669 230.468 439.281 232.526 436.98 234.356Z" fill="white"/>
<path fill-rule="evenodd" clip-rule="evenodd" d="M306 112C440.205 112 549 220.795 549 355C549 366.712 548.171 378.23 546.57 389.5L553.054 393.5C554.994 380.951 556 368.093 556 355C556 216.929 444.071 105 306 105C167.929 105 56 216.929 56 355C56 493.071 167.929 605 306 605V598C171.795 598 63 489.205 63 355C63 220.795 171.795 112 306 112Z" fill="white"/>
<path d="M306 598V605C363.635 605 416.715 585.497 459 552.729L453.669 548C412.74 579.363 361.547 598 306 598Z" fill="white"/>
<path d="M511.896 420.16C510.488 428.096 507.16 434.688 501.912 439.936C496.792 445.056 490.52 448.768 483.096 451.072C489.368 452.096 494.488 455.168 498.456 460.288C502.424 465.28 504.408 471.232 504.408 478.144C504.408 480.192 504.216 482.176 503.832 484.096C502.68 490.88 499.864 497.024 495.384 502.528C491.032 507.904 485.272 512.192 478.104 515.392C470.936 518.464 462.872 520 453.912 520H403.992L427.8 386.176H475.8C487.832 386.176 496.92 388.736 503.064 393.856C509.336 398.976 512.472 405.632 512.472 413.824C512.472 415.872 512.28 417.984 511.896 420.16ZM493.848 422.272C494.104 421.12 494.232 419.52 494.232 417.472C494.232 411.968 492.312 407.68 488.472 404.608C484.632 401.536 479.064 400 471.768 400H442.776L434.904 444.352H464.28C472.344 444.352 479 442.432 484.248 438.592C489.496 434.624 492.696 429.184 493.848 422.272ZM486.552 482.368C486.936 480.576 487.128 478.912 487.128 477.376C487.128 471.488 484.952 466.816 480.6 463.36C476.248 459.904 470.296 458.176 462.744 458.176H432.408L423.96 506.176H454.872C463.448 506.176 470.552 504.064 476.184 499.84C481.816 495.616 485.272 489.792 486.552 482.368ZM568.014 521.728C559.182 521.728 551.374 519.936 544.59 516.352C537.934 512.64 532.75 507.52 529.038 500.992C525.326 494.336 523.47 486.656 523.47 477.952C523.47 466.048 526.222 455.168 531.726 445.312C537.23 435.328 544.782 427.456 554.382 421.696C564.11 415.936 574.926 413.056 586.83 413.056C595.662 413.056 603.47 414.912 610.254 418.624C617.166 422.208 622.478 427.328 626.19 433.984C630.03 440.512 631.95 448.192 631.95 457.024C631.95 468.928 629.134 479.808 623.502 489.664C617.87 499.52 610.19 507.328 600.462 513.088C590.734 518.848 579.918 521.728 568.014 521.728ZM570.126 506.944C578.446 506.944 585.934 504.704 592.59 500.224C599.246 495.616 604.43 489.6 608.142 482.176C611.982 474.624 613.902 466.56 613.902 457.984C613.902 448.256 611.086 440.832 605.454 435.712C599.822 430.464 592.782 427.84 584.334 427.84C576.014 427.84 568.59 430.144 562.062 434.752C555.534 439.232 550.478 445.248 546.894 452.8C543.31 460.352 541.518 468.48 541.518 477.184C541.518 486.656 544.206 494.016 549.582 499.264C554.958 504.384 561.806 506.944 570.126 506.944ZM690.827 521.728C681.995 521.728 674.187 519.936 667.403 516.352C660.747 512.64 655.563 507.52 651.851 500.992C648.139 494.336 646.283 486.656 646.283 477.952C646.283 466.048 649.035 455.168 654.539 445.312C660.043 435.328 667.595 427.456 677.195 421.696C686.923 415.936 697.739 413.056 709.643 413.056C718.475 413.056 726.283 414.912 733.067 418.624C739.979 422.208 745.291 427.328 749.003 433.984C752.843 440.512 754.763 448.192 754.763 457.024C754.763 468.928 751.947 479.808 746.315 489.664C740.683 499.52 733.003 507.328 723.275 513.088C713.547 518.848 702.731 521.728 690.827 521.728ZM692.939 506.944C701.259 506.944 708.747 504.704 715.403 500.224C722.059 495.616 727.243 489.6 730.955 482.176C734.795 474.624 736.715 466.56 736.715 457.984C736.715 448.256 733.899 440.832 728.267 435.712C722.635 430.464 715.595 427.84 707.147 427.84C698.827 427.84 691.403 430.144 684.875 434.752C678.347 439.232 673.291 445.248 669.707 452.8C666.123 460.352 664.331 468.48 664.331 477.184C664.331 486.656 667.019 494.016 672.395 499.264C677.771 504.384 684.619 506.944 692.939 506.944ZM809.607 467.392L849.927 520H826.119L793.095 473.728L784.839 520H767.367L792.519 377.92H809.991L795.207 461.248L843.975 414.784H868.167L809.607 467.392ZM903.236 521.728C892.228 521.728 883.204 519.104 876.164 513.856C869.124 508.608 865.604 501.568 865.604 492.736C865.604 491.072 865.668 489.856 865.796 489.088H882.884C882.372 494.592 883.972 499.072 887.684 502.528C891.524 505.984 897.028 507.712 904.196 507.712C911.364 507.712 917.124 506.368 921.476 503.68C925.956 500.864 928.196 496.96 928.196 491.968C928.196 487.744 926.404 484.416 922.82 481.984C919.236 479.552 913.732 476.928 906.308 474.112C899.78 471.68 894.404 469.376 890.18 467.2C885.956 465.024 882.372 462.016 879.428 458.176C876.484 454.208 875.012 449.216 875.012 443.2C875.012 437.312 876.676 432.064 880.004 427.456C883.46 422.848 888.196 419.328 894.212 416.896C900.356 414.336 907.332 413.056 915.14 413.056C925.892 413.056 934.724 415.744 941.636 421.12C948.548 426.496 952.004 433.536 952.004 442.24C952.004 443.904 951.94 445.184 951.812 446.08H935.108L935.3 443.776C935.3 438.656 933.316 434.624 929.348 431.68C925.508 428.608 920.388 427.072 913.988 427.072C907.716 427.072 902.532 428.48 898.436 431.296C894.468 434.112 892.484 437.888 892.484 442.624C892.484 447.104 894.34 450.624 898.052 453.184C901.764 455.744 907.524 458.56 915.332 461.632C921.86 464.192 927.108 466.56 931.076 468.736C935.044 470.784 938.436 473.664 941.252 477.376C944.068 481.088 945.476 485.76 945.476 491.392C945.476 497.536 943.62 502.912 939.908 507.52C936.324 512.128 931.332 515.648 924.932 518.08C918.532 520.512 911.3 521.728 903.236 521.728Z" fill="white"/>
<ellipse cx="549.905" cy="390.609" rx="3.71422" ry="7.06356" transform="rotate(10.1869 549.905 390.609)" fill="white"/>
<ellipse cx="454.875" cy="551.541" rx="3.71422" ry="7.06356" transform="rotate(52.9301 454.875 551.541)" fill="white"/>
</svg>
