<svg width="911" height="500" viewBox="0 0 911 500" fill="none" xmlns="http://www.w3.org/2000/svg">
<path d="M279.133 410.054C268.525 428.462 258.097 446.551 247.602 464.758C244.486 462.88 243.662 460.401 242.456 458.325C228.414 434.137 214.873 409.656 200.118 385.884C199.856 385.462 199.751 384.917 199.428 384.559C191.414 375.683 194.003 367.646 199.761 358.329C214.342 334.732 227.959 310.539 241.877 286.536C252.71 267.853 263.369 249.07 274.188 230.38C289.085 204.643 303.92 178.868 319.146 153.327C321.577 149.249 323.314 144.684 326.738 141.12C329.187 138.571 331.348 138.013 333.985 140.446C336.391 142.666 338.339 144.671 336.057 148.524C327.68 162.668 319.629 177.004 311.467 191.275C311.055 191.995 310.775 192.79 310.402 193.534C309.279 195.772 309.421 197.908 311.678 199.167C314.193 200.57 316.227 199.448 317.427 197.013C320.741 190.286 325.118 184.205 328.946 177.793C334.319 168.792 339.568 159.711 344.643 150.539C348.854 142.929 351.066 142.21 358.313 147.082C359.81 144.722 361.299 142.363 362.8 140.011C364.753 136.951 367.684 136.249 370.565 137.926C373.674 139.735 374.492 142.582 372.372 146.018C370.285 149.4 368.529 152.985 366.718 156.315C367.085 157.939 368.324 158.208 369.324 158.728C372.965 160.621 373.918 163.395 371.93 166.999C369.522 171.368 367.001 175.675 364.537 180.013C363.124 182.503 362.182 185.266 365.164 187.02C368.028 188.705 370.733 187.533 372.379 184.7C375.304 179.663 378.083 174.541 380.898 169.441C384.752 162.456 387.7 161.77 393.726 166.556C395.78 165.231 396.533 162.909 397.773 160.994C401.614 155.062 404.242 153.596 407.836 155.67C411.727 157.916 411.624 160.312 407.798 166.785C402.293 176.096 396.926 185.489 391.522 194.86C390.861 196.007 390.339 197.235 389.757 198.418C397.21 202.725 397.646 204.392 393.307 211.922C362.295 265.741 331.279 319.558 300.265 373.376C293.281 385.496 286.297 397.616 279.133 410.054ZM287.037 233.393C286.581 234.283 286.135 235.177 285.669 236.06C284.634 238.02 284.245 240.001 286.583 241.2C289.356 242.621 291.465 241.219 292.858 238.882C296.089 233.456 299.133 227.92 302.312 222.463C303.763 219.972 304.871 217.255 301.783 215.552C298.994 214.013 296.701 215.612 295.238 218.3C292.618 223.116 289.977 227.921 287.037 233.393ZM324.583 208.11C323.897 211.742 319.857 213.764 319.968 217.803C320.025 219.871 320.087 221.896 322.538 222.591C324.632 223.185 326.6 222.86 327.758 220.846C330.314 216.399 332.792 211.905 335.191 207.372C336.272 205.328 335.737 203.478 333.789 202.183C331.895 200.924 329.906 200.978 328.369 202.638C327.041 204.072 326.075 205.842 324.583 208.11ZM329.004 238.272C329.036 235.366 327.174 234.214 324.695 233.75C322.148 233.273 320.644 234.867 319.538 236.786C318.303 238.926 317.22 241.163 316.209 243.421C315.169 245.743 315.139 248.095 317.581 249.529C320.265 251.105 322.469 249.671 323.932 247.5C325.768 244.775 327.216 241.788 329.004 238.272ZM359.114 209.861C357.845 212.553 356.778 215.672 360.071 217.253C364.091 219.182 365.956 215.847 367.7 212.884C369.355 210.073 368.951 207.692 366.152 206.087C362.63 204.068 361.065 206.732 359.114 209.861ZM342.324 187.296C345.577 188.044 347.949 186.778 349.06 183.77C349.852 181.629 348.488 179.816 346.745 178.771C344.818 177.615 342.883 178.132 341.486 179.993C339.708 182.362 338.999 184.725 342.324 187.296Z" fill="white"/>
<path d="M194.461 212.592C202.216 225.797 210.062 238.515 218.194 251.063C220.111 254.02 220.682 257.403 218.503 260.933C203.29 285.573 188.194 310.285 173.042 334.963C172.628 335.637 172.006 336.183 171.299 336.998C168.342 334.613 166.851 331.46 165.168 328.479C153.967 308.64 142.803 288.781 131.617 268.934C123.053 253.739 114.581 238.491 105.871 223.379C97.3488 208.593 88.4431 194.026 80.022 179.183C78.2296 176.024 75.9066 173.183 74.461 169.849C72.4302 165.165 73.5918 163.135 78.5674 163.12C105.549 163.04 132.532 163.158 159.513 162.983C165.286 162.945 167.289 167.027 169.285 170.896C176.693 185.258 186.308 198.268 194.461 212.592Z" fill="white"/>
<path d="M358.412 129.367C356.766 132.297 355.154 134.835 353.848 137.521C352.175 140.959 349.36 140.892 346.713 139.593C344.105 138.313 341.961 136.003 343.508 132.705C346.404 126.532 349.93 120.685 353.907 115.151C355.311 113.197 357.472 111.983 360.011 113.511C362.739 115.152 364.137 117.69 363.008 120.699C361.912 123.621 360.087 126.271 358.412 129.367Z" fill="white"/>
<path d="M396.485 145.388C394.523 148.689 392.833 151.727 390.924 154.621C389.149 157.311 386.432 158.21 383.554 156.886C380.44 155.453 379.897 152.216 381.163 149.634C383.842 144.171 386.924 138.852 390.391 133.856C391.894 131.69 394.847 130.855 397.449 132.989C399.83 134.94 401.092 137.325 399.466 140.381C398.612 141.985 397.601 143.504 396.485 145.388Z" fill="white"/>
<path d="M422.823 140.773C421.882 142.381 421.116 143.666 420.387 144.972C418.519 148.319 415.609 149.201 412.359 147.634C408.983 146.007 408.897 142.606 410.275 139.851C412.718 134.966 415.66 130.306 418.68 125.742C420.552 122.912 423.665 123.066 426.317 124.295C429.061 125.567 429.206 128.358 428.138 130.788C426.674 134.119 424.746 137.246 422.823 140.773Z" fill="white"/>
<path d="M407.096 105.676C410.118 104.189 412.533 104.322 414.538 106.797C416.629 109.376 416.363 111.91 414.607 114.543C412.953 117.025 411.531 119.668 409.795 122.086C407.972 124.625 405.638 125.886 402.538 123.973C399.522 122.112 398.463 119.568 400.212 116.395C402.201 112.785 403.846 108.935 407.096 105.676Z" fill="white"/>
<path d="M380.98 129.356C378.147 131.031 376.236 130.043 374.517 128.114C372.794 126.179 372.275 124.093 373.529 121.705C374.148 120.527 374.747 119.338 375.309 118.133C377.053 114.399 379.895 112.587 383.745 114.524C387.483 116.406 387.213 119.801 385.702 123.167C384.669 125.468 383.281 127.526 380.98 129.356Z" fill="white"/>
<path fill-rule="evenodd" clip-rule="evenodd" d="M250 7C384.205 7 493 115.795 493 250C493 261.712 492.171 273.23 490.57 284.5L497.054 288.5C498.994 275.951 500 263.093 500 250C500 111.929 388.071 0 250 0C111.929 0 0 111.929 0 250C0 388.071 111.929 500 250 500V493C115.795 493 7 384.205 7 250C7 115.795 115.795 7 250 7Z" fill="white"/>
<path d="M250 493V500C307.635 500 360.715 480.497 403 447.729L397.669 443C356.74 474.363 305.547 493 250 493Z" fill="white"/>
<path d="M455.896 315.16C454.488 323.096 451.16 329.688 445.912 334.936C440.792 340.056 434.52 343.768 427.096 346.072C433.368 347.096 438.488 350.168 442.456 355.288C446.424 360.28 448.408 366.232 448.408 373.144C448.408 375.192 448.216 377.176 447.832 379.096C446.68 385.88 443.864 392.024 439.384 397.528C435.032 402.904 429.272 407.192 422.104 410.392C414.936 413.464 406.872 415 397.912 415H347.992L371.8 281.176H419.8C431.832 281.176 440.92 283.736 447.064 288.856C453.336 293.976 456.472 300.632 456.472 308.824C456.472 310.872 456.28 312.984 455.896 315.16ZM437.848 317.272C438.104 316.12 438.232 314.52 438.232 312.472C438.232 306.968 436.312 302.68 432.472 299.608C428.632 296.536 423.064 295 415.768 295H386.776L378.904 339.352H408.28C416.344 339.352 423 337.432 428.248 333.592C433.496 329.624 436.696 324.184 437.848 317.272ZM430.552 377.368C430.936 375.576 431.128 373.912 431.128 372.376C431.128 366.488 428.952 361.816 424.6 358.36C420.248 354.904 414.296 353.176 406.744 353.176H376.408L367.96 401.176H398.872C407.448 401.176 414.552 399.064 420.184 394.84C425.816 390.616 429.272 384.792 430.552 377.368ZM512.014 416.728C503.182 416.728 495.374 414.936 488.59 411.352C481.934 407.64 476.75 402.52 473.038 395.992C469.326 389.336 467.47 381.656 467.47 372.952C467.47 361.048 470.222 350.168 475.726 340.312C481.23 330.328 488.782 322.456 498.382 316.696C508.11 310.936 518.926 308.056 530.83 308.056C539.662 308.056 547.47 309.912 554.254 313.624C561.166 317.208 566.478 322.328 570.19 328.984C574.03 335.512 575.95 343.192 575.95 352.024C575.95 363.928 573.134 374.808 567.502 384.664C561.87 394.52 554.19 402.328 544.462 408.088C534.734 413.848 523.918 416.728 512.014 416.728ZM514.126 401.944C522.446 401.944 529.934 399.704 536.59 395.224C543.246 390.616 548.43 384.6 552.142 377.176C555.982 369.624 557.902 361.56 557.902 352.984C557.902 343.256 555.086 335.832 549.454 330.712C543.822 325.464 536.782 322.84 528.334 322.84C520.014 322.84 512.59 325.144 506.062 329.752C499.534 334.232 494.478 340.248 490.894 347.8C487.31 355.352 485.518 363.48 485.518 372.184C485.518 381.656 488.206 389.016 493.582 394.264C498.958 399.384 505.806 401.944 514.126 401.944ZM634.827 416.728C625.995 416.728 618.187 414.936 611.403 411.352C604.747 407.64 599.563 402.52 595.851 395.992C592.139 389.336 590.283 381.656 590.283 372.952C590.283 361.048 593.035 350.168 598.539 340.312C604.043 330.328 611.595 322.456 621.195 316.696C630.923 310.936 641.739 308.056 653.643 308.056C662.475 308.056 670.283 309.912 677.067 313.624C683.979 317.208 689.291 322.328 693.003 328.984C696.843 335.512 698.763 343.192 698.763 352.024C698.763 363.928 695.947 374.808 690.315 384.664C684.683 394.52 677.003 402.328 667.275 408.088C657.547 413.848 646.731 416.728 634.827 416.728ZM636.939 401.944C645.259 401.944 652.747 399.704 659.403 395.224C666.059 390.616 671.243 384.6 674.955 377.176C678.795 369.624 680.715 361.56 680.715 352.984C680.715 343.256 677.899 335.832 672.267 330.712C666.635 325.464 659.595 322.84 651.147 322.84C642.827 322.84 635.403 325.144 628.875 329.752C622.347 334.232 617.291 340.248 613.707 347.8C610.123 355.352 608.331 363.48 608.331 372.184C608.331 381.656 611.019 389.016 616.395 394.264C621.771 399.384 628.619 401.944 636.939 401.944ZM753.607 362.392L793.927 415H770.119L737.095 368.728L728.839 415H711.367L736.519 272.92H753.991L739.207 356.248L787.975 309.784H812.167L753.607 362.392ZM847.236 416.728C836.228 416.728 827.204 414.104 820.164 408.856C813.124 403.608 809.604 396.568 809.604 387.736C809.604 386.072 809.668 384.856 809.796 384.088H826.884C826.372 389.592 827.972 394.072 831.684 397.528C835.524 400.984 841.028 402.712 848.196 402.712C855.364 402.712 861.124 401.368 865.476 398.68C869.956 395.864 872.196 391.96 872.196 386.968C872.196 382.744 870.404 379.416 866.82 376.984C863.236 374.552 857.732 371.928 850.308 369.112C843.78 366.68 838.404 364.376 834.18 362.2C829.956 360.024 826.372 357.016 823.428 353.176C820.484 349.208 819.012 344.216 819.012 338.2C819.012 332.312 820.676 327.064 824.004 322.456C827.46 317.848 832.196 314.328 838.212 311.896C844.356 309.336 851.332 308.056 859.14 308.056C869.892 308.056 878.724 310.744 885.636 316.12C892.548 321.496 896.004 328.536 896.004 337.24C896.004 338.904 895.94 340.184 895.812 341.08H879.108L879.3 338.776C879.3 333.656 877.316 329.624 873.348 326.68C869.508 323.608 864.388 322.072 857.988 322.072C851.716 322.072 846.532 323.48 842.436 326.296C838.468 329.112 836.484 332.888 836.484 337.624C836.484 342.104 838.34 345.624 842.052 348.184C845.764 350.744 851.524 353.56 859.332 356.632C865.86 359.192 871.108 361.56 875.076 363.736C879.044 365.784 882.436 368.664 885.252 372.376C888.068 376.088 889.476 380.76 889.476 386.392C889.476 392.536 887.62 397.912 883.908 402.52C880.324 407.128 875.332 410.648 868.932 413.08C862.532 415.512 855.3 416.728 847.236 416.728Z" fill="white"/>
<ellipse cx="493.905" cy="285.609" rx="3.71422" ry="7.06356" transform="rotate(10.1869 493.905 285.609)" fill="white"/>
<ellipse cx="398.875" cy="446.541" rx="3.71422" ry="7.06356" transform="rotate(52.9301 398.875 446.541)" fill="white"/>
</svg>
